<svg id="visual" viewBox="0 0 900 600" width="900" height="600" xmlns="http://www.w3.org/2000/svg" xmlns:xlink="http://www.w3.org/1999/xlink" version="1.1"><path d="M0 49L82 109L164 61L245 79L327 61L409 109L491 61L573 127L655 55L736 103L818 67L900 121L900 0L818 0L736 0L655 0L573 0L491 0L409 0L327 0L245 0L164 0L82 0L0 0Z" fill="#00eaa4"></path><path d="M0 115L82 211L164 121L245 217L327 133L409 253L491 187L573 259L655 199L736 253L818 199L900 175L900 119L818 65L736 101L655 53L573 125L491 59L409 107L327 59L245 77L164 59L82 107L0 47Z" fill="#00d09b"></path><path d="M0 169L82 277L164 205L245 313L327 187L409 331L491 223L573 301L655 265L736 313L818 271L900 223L900 173L818 197L736 251L655 197L573 257L491 185L409 251L327 131L245 215L164 119L82 209L0 113Z" fill="#00b690"></path><path d="M0 463L82 523L164 355L245 427L327 313L409 499L491 475L573 397L655 403L736 445L818 391L900 427L900 221L818 269L736 311L655 263L573 299L491 221L409 329L327 185L245 311L164 203L82 275L0 167Z" fill="#009c82"></path><path d="M0 601L82 601L164 601L245 601L327 601L409 601L491 601L573 601L655 601L736 601L818 601L900 601L900 425L818 389L736 443L655 401L573 395L491 473L409 497L327 311L245 425L164 353L82 521L0 461Z" fill="#038373"></path></svg>